<?xml version="1.0" encoding="UTF-8" standalone="no"?>
<svg
   width="23.720715"
   height="23.978861"
   viewBox="0 0 2.4575083 2.4842099"
   preserveAspectRatio="xMidYMid"
   version="1.1"
   id="svg1"
   sodipodi:docname="steam.svg"
   inkscape:version="1.4.2 (f4327f4, 2025-05-13)"
   xmlns:inkscape="http://www.inkscape.org/namespaces/inkscape"
   xmlns:sodipodi="http://sodipodi.sourceforge.net/DTD/sodipodi-0.dtd"
   xmlns="http://www.w3.org/2000/svg"
   xmlns:svg="http://www.w3.org/2000/svg">
  <defs
     id="defs1" />
  <sodipodi:namedview
     id="namedview1"
     pagecolor="#505050"
     bordercolor="#eeeeee"
     borderopacity="1"
     inkscape:showpageshadow="0"
     inkscape:pageopacity="0"
     inkscape:pagecheckerboard="0"
     inkscape:deskcolor="#505050"
     inkscape:zoom="7.3216"
     inkscape:cx="12.428977"
     inkscape:cy="24.516499"
     inkscape:window-width="2293"
     inkscape:window-height="1360"
     inkscape:window-x="1694"
     inkscape:window-y="0"
     inkscape:window-maximized="0"
     inkscape:current-layer="svg1" />
  <path
     d="M 1.2266326,-0.00222626 C 0.58001033,-0.00222626 0.05030212,0.50091015 0,1.1402655 l 0.65972575,0.2752601 a 0.34378234,0.34378234 0 0 1 0.19608228,-0.061111 c 0.006547,0 0.013017,1.81e-4 0.0193912,5.387e-4 L 1.1686219,0.92575206 v -0.006009 c 0,-0.25825918 0.2082163,-0.46842412 0.4641715,-0.46842412 0.2559456,0 0.4641619,0.21016494 0.4641619,0.46842412 0,0.25824954 -0.2082163,0.46850084 -0.4641619,0.46850084 -0.00355,0 -0.00701,-8.57e-5 -0.01054,-1.715e-4 L 1.2037758,1.68928 c 2.7e-4,0.00559 4.414e-4,0.011164 4.414e-4,0.016655 0,0.1939511 -0.1563109,0.3516925 -0.34840934,0.3516925 -0.1686273,0 -0.30971325,-0.1215123 -0.34159364,-0.2823447 L 0.04233442,1.5783931 c 0.14613534,0.5213853 0.6208376,0.9036334 1.18429818,0.9036334 0.6798274,0 1.2308756,-0.556184 1.2308756,-1.2421264 0,-0.68601914 -0.5510482,-1.24212636 -1.2308756,-1.24212636 z M 0.77135038,1.8824906 0.62016564,1.8194401 c 0.0267542,0.056321 0.0731589,0.1034361 0.13471178,0.1293071 0.13302219,0.055966 0.28641488,-0.00771 0.34186238,-0.142065 A 0.26451812,0.26451812 0 0 0 1.0971813,1.6047537 C 1.0706095,1.5395721 1.0203938,1.4887324 0.95600901,1.4616327 0.8919794,1.4348016 0.82342838,1.4357712 0.76320022,1.4587145 l 0.1562342,0.065182 C 1.0175619,1.5651746 1.0639666,1.6788823 1.0230529,1.7779026 0.98222562,1.8769133 0.86947784,1.9237692 0.77135031,1.8824907 Z M 1.9420938,0.9197425 c 0,-0.1720736 -0.1387819,-0.31218036 -0.3092716,-0.31218036 -0.170576,0 -0.309358,0.14010676 -0.309358,0.31218036 0,0.1720832 0.138782,0.3121035 0.309358,0.3121035 0.1704897,0 0.3092716,-0.1400203 0.3092716,-0.3121035 z M 1.4009621,0.91921419 c 0,-0.12948 0.1040601,-0.23442325 0.2323113,-0.23442325 0.128328,0 0.2323881,0.10494325 0.2323881,0.23442325 0,0.12948001 -0.1040601,0.23443281 -0.2323977,0.23443281 -0.1282416,0 -0.2323113,-0.1049528 -0.2323113,-0.23442322 z"
     fill="#1A1918"
     id="path1"
     style="fill:#ffffff;fill-opacity:1;stroke-width:0.00959961" />
</svg>
